HIERARCHY
ROOT Hips
{
  OFFSET 49.9967 94.2768 10.2515
  CHANNELS 6 Xposition Yposition Zposition Zrotation Xrotation Yrotation
  JOINT spine
  {
    OFFSET 0 7.80059 0.448573
    CHANNELS 3 Zrotation Xrotation Yrotation
    JOINT spine1
    {
      OFFSET 0 10.1364 0
      CHANNELS 3 Zrotation Xrotation Yrotation
      JOINT spine2
      {
        OFFSET 0 9.71251 0
        CHANNELS 3 Zrotation Xrotation Yrotation
        JOINT Neck
        {
          OFFSET 0 24.9361 1.18887
          CHANNELS 3 Zrotation Xrotation Yrotation
          JOINT Head
          {
            OFFSET 0 7.53384 0
            CHANNELS 3 Zrotation Xrotation Yrotation
            End Site
            {
              OFFSET 0 18.2361 -6.01402
            }
          }
        }
        JOINT RightShoulder
        {
          OFFSET -4.08965 10.4888 -0.569457
          CHANNELS 3 Zrotation Xrotation Yrotation
          JOINT RightArm
          {
            OFFSET 0 13.757 0
            CHANNELS 3 Zrotation Xrotation Yrotation
            JOINT RightArmRoll
            {
              OFFSET 0 6.94478 0
              CHANNELS 3 Zrotation Xrotation Yrotation
              JOINT RightForeArm
              {
                OFFSET 0 20.2277 0
                CHANNELS 3 Zrotation Xrotation Yrotation
                JOINT RightForeArmRoll
                {
                  OFFSET 0 7.79312 0
                  CHANNELS 3 Zrotation Xrotation Yrotation
                  JOINT RightHand
                  {
                    OFFSET 0 15.6391 0
                    CHANNELS 3 Zrotation Xrotation Yrotation
                    End Site
                    {
                      OFFSET 0 0 0
                    }
                  }
                }
              }
            }
          }
        }
        JOINT LeftShoulder
        {
          OFFSET 4.08965 10.4888 -0.569457
          CHANNELS 3 Zrotation Xrotation Yrotation
          JOINT LeftArm
          {
            OFFSET 0 13.757 0
            CHANNELS 3 Zrotation Xrotation Yrotation
            JOINT LeftArmRoll
            {
              OFFSET 0 6.94478 0
              CHANNELS 3 Zrotation Xrotation Yrotation
              JOINT LeftForeArm
              {
                OFFSET 0 20.2277 0
                CHANNELS 3 Zrotation Xrotation Yrotation
                JOINT LeftForeArmRoll
                {
                  OFFSET 0 7.79312 0
                  CHANNELS 3 Zrotation Xrotation Yrotation
                  JOINT LeftHand
                  {
                    OFFSET 0 15.6391 0
                    CHANNELS 3 Zrotation Xrotation Yrotation
                    End Site
                    {
                      OFFSET 0 0 0
                    }
                  }
                }
              }
            }
          }
        }
      }
    }
  }
  JOINT RightUpLeg
  {
    OFFSET -6.91415 -1.26788 -1.06358
    CHANNELS 3 Zrotation Xrotation Yrotation
    JOINT RightUpLegRoll
    {
      OFFSET 0 18.3378 0
      CHANNELS 3 Zrotation Xrotation Yrotation
      JOINT RightLeg
      {
        OFFSET 0 -22.7085 0
        CHANNELS 3 Zrotation Xrotation Yrotation
        JOINT RightLegRoll
        {
          OFFSET 0 22.7828 0
          CHANNELS 3 Zrotation Xrotation Yrotation
          JOINT RightFoot
          {
            OFFSET 0 18.9629 0
            CHANNELS 3 Zrotation Xrotation Yrotation
            JOINT RightToeBase
            {
              OFFSET 0 15.852 0
              CHANNELS 3 Zrotation Xrotation Yrotation
              End Site
              {
                OFFSET 0.00671906 7.67701 -0.884893
              }
            }
          }
        }
      }
    }
  }
  JOINT LeftUpLeg
  {
    OFFSET 6.91415 -1.26788 -1.06358
    CHANNELS 3 Zrotation Xrotation Yrotation
    JOINT LeftUpLegRoll
    {
      OFFSET 0 18.3379 0
      CHANNELS 3 Zrotation Xrotation Yrotation
      JOINT LeftLeg
      {
        OFFSET 0 22.7084 0
        CHANNELS 3 Zrotation Xrotation Yrotation
        JOINT LeftLegRoll
        {
          OFFSET 0 22.9934 0
          CHANNELS 3 Zrotation Xrotation Yrotation
          JOINT LeftFoot
          {
            OFFSET 0 18.7522 0
            CHANNELS 3 Zrotation Xrotation Yrotation
            JOINT LeftToeBase
            {
              OFFSET 0 15.852 0
              CHANNELS 3 Zrotation Xrotation Yrotation
              End Site
              {
                OFFSET -0.030112 7.67701 -0.884893
              }
            }
          }
        }
      }
    }
  }
}
MOTION
Frames: 10
Frame Time: 0.00208333
53.1353 93.9425 11.1586 -0.424302 -5.24853 2.00809 0.124356 -0.746471 0.329132 0.228866 2.51055 0.644558 0.221371 4.15557 0.641233 -6.36745 28.0765 0.160463 5.94363 -14.3143 -0.975528 81.1628 -4.33993 -4.15457 89.5685 13.9485 13.8231 -1.72031e-005 -1.59677e-006 1.97995e-009 11.8969 13.7274 -2.39911 6.73925e-006 3.50062e-007 -2.99999 8.02888 -4.95141 0.697678 -63.5646 -1.80407 1.60083 -108.774 6.3362 -14.3575 -4.43758e-007 7.93746e-007 -5.23028e-008 -1.67121 13.9492 1.15657 4.23098e-006 -9.41763e-007 3.00001 -8.0301 -4.95137 -0.69766 -176.915 -1.40337 -2.36386 180 7.01514e-015 178.787 178.781 11.0229 179.639 3.04125e-006 -3.99497e-006 0.323245 -23.5263 70.3977 21.9641 8.12802 25.2331 -3.47967 178.586 -1.2333 7.16135 4.54188e-006 -4.6773e-006 -1.5157 -5.13825 -13.931 -0.426503 2.92614e-007 -5.43382e-006 -0.296746 27.6901 73.0768 -25.6313 -8.127 25.236 3.48365 
53.1403 93.943 11.1607 -0.424169 -5.24544 2.00682 0.123409 -0.746928 0.329797 0.227632 2.50963 0.645968 0.220119 4.15466 0.642666 -6.35695 28.0715 0.14954 5.93987 -14.3356 -0.981732 81.1743 -4.33913 -4.15496 89.5674 13.9276 13.8066 -1.72031e-005 -1.59677e-006 1.97994e-009 11.9077 13.7616 -2.40427 6.73925e-006 3.50062e-007 -2.99999 8.02888 -4.95141 0.697678 -63.5773 -1.81071 1.60579 -108.756 6.32414 -14.3453 -4.43758e-007 7.93746e-007 -5.23028e-008 -1.6905 13.9863 1.16137 4.23098e-006 -9.41763e-007 3.00001 -8.0301 -4.95137 -0.69766 -176.918 -1.40952 -2.35884 180 7.01514e-015 178.787 178.775 11.0084 179.64 3.04125e-006 -3.99497e-006 0.323262 -23.5256 70.393 21.959 8.12802 25.2331 -3.47967 178.591 -1.2337 7.1549 4.54188e-006 -4.6773e-006 -1.51434 -5.14379 -13.9262 -0.426459 2.92614e-007 -5.43382e-006 -0.295755 27.6689 73.0713 -25.6206 -8.127 25.236 3.48365 
53.137 93.9494 11.1612 -0.42384 -5.24318 2.00507 0.122383 -0.74739 0.330575 0.226219 2.5087 0.647616 0.218684 4.15373 0.64434 -6.34514 28.0684 0.13821 5.93486 -14.3575 -0.988187 81.1874 -4.33815 -4.15538 89.5643 13.9064 13.7899 -1.72031e-005 -1.59677e-006 1.97994e-009 11.9191 13.7955 -2.4094 6.73925e-006 3.50062e-007 -2.99999 8.02888 -4.95141 0.697678 -63.59 -1.81755 1.61085 -108.739 6.31047 -14.3336 -4.43758e-007 7.93746e-007 -5.23028e-008 -1.70987 14.0255 1.16624 4.23098e-006 -9.41763e-007 3.00001 -8.0301 -4.95137 -0.69766 -176.922 -1.4172 -2.3533 180 7.01514e-015 178.787 178.769 10.9928 179.641 3.04125e-006 -3.99497e-006 0.323287 -23.5246 70.3879 21.9536 8.12802 25.2331 -3.47967 178.595 -1.23576 7.14831 4.54188e-006 -4.6773e-006 -1.51292 -5.14949 -13.9203 -0.426354 2.92614e-007 -5.43382e-006 -0.294702 27.6459 73.0653 -25.6089 -8.127 25.236 3.48365 
53.1145 93.9429 11.0761 -0.423374 -5.24148 2.00298 0.121301 -0.747855 0.331434 0.224681 2.50777 0.649432 0.217122 4.1528 0.646184 -6.33242 28.0666 0.126596 5.92897 -14.3798 -0.994819 81.2015 -4.33706 -4.15582 89.5599 13.8849 13.7731 -1.72031e-005 -1.59677e-006 1.97994e-009 11.9308 13.8292 -2.41452 6.73925e-006 3.50062e-007 -2.99999 8.02888 -4.95141 0.697678 -63.6028 -1.82453 1.616 -108.721 6.29565 -14.3224 -4.43758e-007 7.93746e-007 -5.23028e-008 -1.72931 14.0662 1.17115 4.23098e-006 -9.41763e-007 3.00001 -8.0301 -4.95137 -0.69766 -176.926 -1.42595 -2.34741 180 7.01514e-015 178.787 178.763 10.9766 179.642 3.04125e-006 -3.99497e-006 0.323319 -23.5234 70.3826 21.9479 8.12802 25.2331 -3.47967 178.6 -1.23899 7.14163 4.54188e-006 -4.6773e-006 -1.51145 -5.1553 -13.9138 -0.426208 2.92614e-007 -5.43382e-006 -0.293606 27.6215 73.0588 -25.5964 -8.127 25.236 3.48365 
53.1148 93.9452 11.0906 -0.422829 -5.24011 2.0007 0.120187 -0.748322 0.332338 0.223071 2.50683 0.651342 0.215486 4.15186 0.648125 -6.31917 28.0655 0.11482 5.92259 -14.4023 -1.00155 81.2163 -4.3359 -4.15627 89.5546 13.8632 13.7563 -1.72031e-005 -1.59677e-006 1.97994e-009 11.9428 13.8628 -2.41964 6.73925e-006 3.50062e-007 -2.99999 8.02888 -4.95141 0.697678 -63.6155 -1.83158 1.6212 -108.704 6.28019 -14.3114 -4.43758e-007 7.93746e-007 -5.23028e-008 -1.74878 14.1076 1.17609 4.23098e-006 -9.41763e-007 3.00001 -8.0301 -4.95137 -0.69766 -176.929 -1.43531 -2.34131 180 7.01514e-015 178.787 178.757 10.9599 179.642 3.04125e-006 -3.99497e-006 0.323353 -23.5221 70.3772 21.9421 8.12802 25.2331 -3.47967 178.605 -1.24288 7.1349 4.54188e-006 -4.6773e-006 -1.50995 -5.16118 -13.9068 -0.426036 2.92614e-007 -5.43382e-006 -0.292485 27.5963 73.0521 -25.5835 -8.127 25.236 3.48365 
53.1339 93.9477 11.1764 -0.422264 -5.23882 1.99837 0.119066 -0.74879 0.333253 0.221442 2.50589 0.653277 0.213833 4.15092 0.65009 -6.30579 28.0645 0.103002 5.91607 -14.4249 -1.00831 81.2312 -4.33472 -4.15673 89.5492 13.8416 13.7394 -1.72031e-005 -1.59677e-006 1.97994e-009 11.9548 13.8964 -2.42476 6.73925e-006 3.50062e-007 -2.99999 8.02888 -4.95141 0.697678 -63.6283 -1.83866 1.62641 -108.687 6.26456 -14.3004 -4.43758e-007 7.93746e-007 -5.23028e-008 -1.76826 14.1493 1.18104 4.23098e-006 -9.41763e-007 3.00001 -8.0301 -4.95137 -0.69766 -176.933 -1.44482 -2.33516 180 7.01514e-015 178.787 178.75 10.9431 179.643 3.04125e-006 -3.99497e-006 0.323388 -23.5208 70.3718 21.9363 8.12802 25.2331 -3.47967 178.61 -1.24694 7.12815 4.54188e-006 -4.6773e-006 -1.50844 -5.16707 -13.8998 -0.425859 2.92614e-007 -5.43382e-006 -0.291357 27.5709 73.0454 -25.5705 -8.127 25.236 3.48365 
53.1272 93.9511 11.1475 -0.421738 -5.23737 1.99614 0.11796 -0.749257 0.334146 0.21985 2.50495 0.655164 0.212216 4.14999 0.652007 -6.29268 28.0633 0.091267 5.9098 -14.4474 -1.01502 81.2459 -4.33357 -4.15717 89.5441 13.82 13.7226 -1.72031e-005 -1.59677e-006 1.97994e-009 11.9667 13.93 -2.42989 6.73925e-006 3.50062e-007 -2.99999 8.02888 -4.95141 0.697678 -63.6411 -1.84569 1.6316 -108.669 6.24925 -14.2894 -4.43758e-007 7.93746e-007 -5.23028e-008 -1.78774 14.1906 1.18598 4.23098e-006 -9.41763e-007 3.00001 -8.0301 -4.95137 -0.69766 -176.937 -1.45403 -2.32911 180 7.01514e-015 178.787 178.744 10.9265 179.644 3.04125e-006 -3.99497e-006 0.323422 -23.5196 70.3665 21.9306 8.12802 25.2331 -3.47967 178.614 -1.25066 7.12143 4.54188e-006 -4.6773e-006 -1.50695 -5.17293 -13.8929 -0.425694 2.92614e-007 -5.43382e-006 -0.290242 27.546 73.0387 -25.5578 -8.127 25.236 3.48365 
53.1326 93.9519 11.1633 -0.42131 -5.23551 1.99415 0.116894 -0.749721 0.334982 0.218348 2.50402 0.656932 0.21069 4.14905 0.653802 -6.28022 28.061 0.079736 5.90414 -14.4695 -1.02161 81.2597 -4.33251 -4.15761 89.54 13.7985 13.7059 -1.72031e-005 -1.59677e-006 1.97994e-009 11.9784 13.9638 -2.43503 6.73925e-006 3.50062e-007 -2.99999 8.02888 -4.95141 0.697678 -63.6539 -1.85263 1.63673 -108.652 6.23475 -14.278 -4.43758e-007 7.93746e-007 -5.23028e-008 -1.80719 14.2308 1.19088 4.23098e-006 -9.41763e-007 3.00001 -8.0301 -4.95137 -0.69766 -176.941 -1.46247 -2.32332 180 7.01514e-015 178.787 178.738 10.9104 179.645 3.04125e-006 -3.99497e-006 0.323452 -23.5185 70.3613 21.925 8.12802 25.2331 -3.47967 178.619 -1.25356 7.11478 4.54188e-006 -4.6773e-006 -1.50549 -5.17871 -13.8866 -0.42556 2.92614e-007 -5.43382e-006 -0.289158 27.522 73.0324 -25.5455 -8.127 25.236 3.48365 
53.1311 93.949 11.1647 -0.421039 -5.233 1.99254 0.115891 -0.750182 0.335726 0.216989 2.50309 0.658509 0.209311 4.14813 0.655404 -6.26881 28.0573 0.0685324 5.89948 -14.4913 -1.028 81.2723 -4.33159 -4.15802 89.5374 13.7774 13.6893 -1.72031e-005 -1.59677e-006 1.97995e-009 11.9897 13.9978 -2.44018 6.73925e-006 3.50062e-007 -2.99999 8.02888 -4.95141 0.697678 -63.6665 -1.85941 1.64176 -108.634 6.22155 -14.2662 -4.43758e-007 7.93746e-007 -5.23028e-008 -1.82658 14.2693 1.19574 4.23098e-006 -9.41763e-007 3.00001 -8.0301 -4.95137 -0.69766 -176.944 -1.4697 -2.31794 180 7.01514e-015 178.787 178.732 10.8952 179.646 3.04125e-006 -3.99497e-006 0.323475 -23.5175 70.3563 21.9197 8.12802 25.2331 -3.47967 178.624 -1.25512 7.10823 4.54188e-006 -4.6773e-006 -1.50409 -5.18436 -13.8811 -0.425474 2.92614e-007 -5.43382e-006 -0.288124 27.4996 73.0265 -25.5342 -8.127 25.236 3.48365 
53.1272 93.9505 11.1797 -0.420984 -5.22959 1.99147 0.114977 -0.750637 0.336345 0.215828 2.50218 0.659823 0.208132 4.14722 0.656739 -6.25886 28.0516 0.0577791 5.89617 -14.5124 -1.03411 81.2832 -4.33085 -4.1584 89.5369 13.7566 13.6728 -1.72031e-005 -1.59677e-006 1.97994e-009 12.0003 14.0322 -2.44536 6.73925e-006 3.50062e-007 -2.99999 8.02888 -4.95141 0.697678 -63.6791 -1.86598 1.64666 -108.616 6.21013 -14.2538 -4.43758e-007 7.93746e-007 -5.23028e-008 -1.8459 14.3056 1.20054 4.23098e-006 -9.41763e-007 3.00001 -8.0301 -4.95137 -0.69766 -176.947 -1.47524 -2.31313 180 7.01514e-015 178.786 178.726 10.8811 179.646 3.04125e-006 -3.99497e-006 0.323488 -23.5169 70.3516 21.9148 8.12802 25.2331 -3.47967 178.629 -1.25486 7.10183 4.54188e-006 -4.6773e-006 -1.50275 -5.18984 -13.8767 -0.425454 2.92614e-007 -5.43382e-006 -0.287158 27.4793 73.0213 -25.524 -8.127 25.236 3.48365 
